<svg xmlns="http://www.w3.org/2000/svg" width="468" height="315" viewBox="0 0 468 315" version="1.1"><path d="M 0 1 C 0 1.664, 77.926 2.005, 231.750 2.014 C 359.213 2.021, 464.450 2.282, 465.612 2.594 C 467.001 2.967, 467.932 2.620, 468.331 1.581 C 468.883 0.143, 447.786 0, 234.469 0 C 78.823 0, 0 0.336, 0 1 M 263.500 113.618 C 248.754 116.270, 236.446 124.325, 231.086 134.831 C 228.271 140.350, 225.994 149.407, 226.027 154.960 L 226.053 159.500 229.277 153.535 C 233.355 145.987, 241.153 138.263, 248.821 134.176 C 252.099 132.429, 255.131 131, 255.560 131 C 255.990 131, 253.482 133.587, 249.987 136.750 C 240.951 144.927, 234.326 155.885, 231.421 167.459 C 230.858 169.703, 231.094 170, 233.444 170 C 238.939 170, 250.735 166.658, 257.295 163.243 C 271.945 155.615, 280.945 138.902, 280.985 119.250 L 281 112 276.250 112.090 C 273.637 112.139, 267.900 112.827, 263.500 113.618 M 185 129.734 C 185 134.935, 186.922 143.125, 189.225 147.736 C 193.465 156.226, 202.513 161.789, 212.828 162.248 L 218.500 162.500 218.797 156.281 C 219.314 145.444, 216.036 137.998, 208.491 132.874 C 203.737 129.645, 199.631 128.348, 191.250 127.428 L 185 126.742 185 129.734 M 92.235 188.996 C 88.088 192.859, 88.430 200.276, 92.913 203.718 C 96.752 206.666, 98.624 203.780, 95 200.500 C 93.900 199.505, 93 197.480, 93 196 C 93 194.520, 93.900 192.495, 95 191.500 C 97.272 189.444, 97.646 187, 95.689 187 C 94.967 187, 93.413 187.898, 92.235 188.996 M 98.055 188.250 C 98.086 188.938, 99.466 190.572, 101.123 191.882 C 103.463 193.732, 104.400 193.996, 105.318 193.063 C 106.231 192.135, 105.861 191.307, 103.694 189.430 C 100.664 186.805, 97.966 186.241, 98.055 188.250 M 113.913 188.282 C 111.563 190.086, 110 193.488, 110 196.798 C 110 199.881, 114.141 205, 116.636 205 C 118.711 205, 118.263 201.646, 116 200.232 C 114.726 199.437, 114 197.900, 114 196 C 114 194.100, 114.726 192.563, 116 191.768 C 118.198 190.395, 118.739 186.981, 116.750 187.032 C 116.063 187.049, 114.786 187.612, 113.913 188.282 M 120 188.345 C 120 189.085, 120.900 190.505, 122 191.500 C 123.105 192.500, 124 194.580, 124 196.147 C 124 197.900, 123.236 199.460, 122 200.232 C 119.737 201.646, 119.289 205, 121.364 205 C 122.114 205, 123.914 203.814, 125.364 202.364 C 128.227 199.500, 128.797 195.365, 126.837 191.684 C 124.713 187.696, 120 185.394, 120 188.345 M 134 189 C 132.900 190.100, 132 191.450, 132 192 C 132 192.550, 132.900 193, 134 193 C 135.100 193, 136 192.598, 136 192.107 C 136 190.533, 139.203 189.923, 140.745 191.203 C 142.022 192.263, 141.582 193.019, 137.679 196.470 C 135.173 198.687, 132.983 201.400, 132.811 202.500 C 132.532 204.297, 133.143 204.530, 138.833 204.800 C 144.477 205.067, 145.129 204.904, 144.825 203.300 C 144.597 202.098, 143.417 201.397, 141.276 201.189 L 138.069 200.878 141.534 197.836 C 145.570 194.292, 146.033 190.837, 142.777 188.557 C 139.746 186.433, 136.398 186.602, 134 189 M 162.190 188.750 C 162.376 189.713, 163.190 190.500, 164 190.500 C 164.810 190.500, 165.624 189.713, 165.810 188.750 C 166.046 187.522, 165.506 187, 164 187 C 162.494 187, 161.954 187.522, 162.190 188.750 M 168 196 C 168 203.333, 168.278 205, 169.500 205 C 170.689 205, 171 203.563, 171 198.066 C 171 191.251, 171.047 191.127, 173.741 190.816 C 175.395 190.626, 176.615 189.805, 176.815 188.750 C 177.092 187.290, 176.389 187, 172.573 187 L 168 187 168 196 M 181.667 187.667 C 180.049 189.284, 181.340 190, 185.878 190 C 189.053 190, 191.202 190.538, 192.035 191.542 C 193.882 193.767, 192.265 194.833, 186.500 195.190 L 181.500 195.500 181.500 199.986 C 181.500 203.464, 181.893 204.548, 183.250 204.810 C 184.610 205.072, 185 204.462, 185 202.073 C 185 199.539, 185.401 199, 187.284 199 C 188.762 199, 190.195 200.059, 191.341 202 C 192.343 203.696, 193.958 205, 195.057 205 C 197.491 205, 197.486 204.491, 195.012 201.017 C 193.269 198.569, 193.207 198.073, 194.512 196.990 C 196.464 195.370, 196.416 190.559, 194.429 188.571 C 192.838 186.981, 183.046 186.287, 181.667 187.667 M 205.143 191.411 C 201.788 198.993, 201.631 200, 203.797 200 C 205.104 200, 206.198 198.788, 207.181 196.250 L 208.634 192.500 210.317 195.700 C 211.243 197.461, 212 199.351, 212 199.900 C 212 200.450, 209.417 201.035, 206.260 201.200 C 201.732 201.437, 200.449 201.870, 200.186 203.250 C 199.889 204.814, 200.830 205, 209.034 205 C 215.970 205, 218.095 204.695, 217.728 203.750 C 210.680 185.621, 208.604 183.586, 205.143 191.411 M 222 187.476 C 222 187.738, 224.744 191.788, 228.097 196.476 C 232.086 202.052, 234.852 205, 236.097 205 C 237.827 205, 238 204.180, 238 196 C 238 187.667, 237.852 187, 236 187 C 234.233 187, 234 187.667, 234 192.711 L 234 198.421 229.808 192.711 C 227.388 189.415, 224.851 187, 223.808 187 C 222.814 187, 222 187.214, 222 187.476 M 244.342 189.601 C 242.109 193.009, 243.358 194.998, 249.060 197.117 C 253.738 198.856, 255.130 200.629, 252.583 201.606 C 250.393 202.447, 250.590 205, 252.845 205 C 255.010 205, 258 201.999, 258 199.826 C 258 197.718, 255.181 195.471, 250.750 194.049 C 246.833 192.791, 245.948 191.341, 248.500 190.362 C 250.691 189.521, 250.334 187, 248.023 187 C 246.936 187, 245.279 188.170, 244.342 189.601 M 251 188.345 C 251 189.946, 254.168 193, 255.829 193 C 257.507 193, 257.273 190.416, 255.429 188.571 C 253.504 186.647, 251 186.519, 251 188.345 M 263 188.500 C 263 189.578, 264.102 190, 266.918 190 C 272.066 190, 274 190.819, 274 193 C 274 195.181, 272.066 196, 266.918 196 L 263 196 263 200.573 C 263 204.389, 263.290 205.092, 264.750 204.815 C 265.805 204.615, 266.626 203.395, 266.816 201.741 C 267.087 199.397, 267.594 198.998, 270.316 198.985 C 274.060 198.967, 275.293 198.274, 276.850 195.315 C 278.228 192.699, 276.965 188.584, 274.495 187.636 C 273.583 187.286, 270.623 187, 267.918 187 C 264.213 187, 263 187.370, 263 188.500 M 286.214 189.696 C 285.653 191.238, 284.470 194.188, 283.584 196.250 C 282.029 199.870, 282.042 200, 283.973 200 C 285.328 200, 286.498 198.791, 287.602 196.250 L 289.230 192.500 291.063 196.500 L 292.896 200.500 287.728 200.810 C 282.511 201.123, 279.563 202.483, 280.570 204.113 C 281.292 205.282, 298 205.266, 298 204.097 C 298 203.600, 296.496 199.662, 294.657 195.347 C 290.888 186.499, 288.063 184.608, 286.214 189.696 M 302.667 187.667 C 301.049 189.284, 302.340 190, 306.878 190 C 310.053 190, 312.202 190.538, 313.035 191.542 C 314.882 193.767, 313.265 194.833, 307.500 195.190 L 302.500 195.500 302.500 199.986 C 302.500 203.464, 302.893 204.548, 304.250 204.810 C 305.610 205.072, 306 204.462, 306 202.073 C 306 199.539, 306.401 199, 308.284 199 C 309.762 199, 311.195 200.059, 312.341 202 C 313.343 203.696, 314.958 205, 316.057 205 C 318.496 205, 318.487 204.493, 315.982 200.975 C 314.635 199.083, 314.326 197.917, 315.052 197.468 C 318.032 195.626, 317.764 189.878, 314.600 187.765 C 313.222 186.845, 303.568 186.765, 302.667 187.667 M 323 189 C 323 190.944, 323.474 191.071, 329.750 190.796 C 334.952 190.568, 336.500 190.156, 336.500 189 C 336.500 187.844, 334.952 187.432, 329.750 187.204 C 323.474 186.929, 323 187.056, 323 189 M 342 187.823 C 342 189.622, 354.077 205, 355.490 205 C 356.725 205, 357 203.360, 357 196 C 357 188.804, 356.709 187, 355.550 187 C 354.486 187, 354.020 188.531, 353.800 192.750 L 353.500 198.500 349.500 192.762 C 347.235 189.513, 344.741 187.019, 343.750 187.012 C 342.788 187.005, 342 187.370, 342 187.823 M 362 188.500 C 362 189.611, 363.167 190, 366.500 190 C 371.086 190, 371.913 190.687, 369.833 192.767 C 368.943 193.657, 369.100 194.101, 370.490 194.635 C 371.784 195.131, 372.997 194.542, 374.658 192.612 C 378.728 187.879, 377.921 187, 369.500 187 C 363.500 187, 362 187.300, 362 188.500 M 323 196 C 323 197.935, 323.477 198.073, 329.250 197.798 C 334.007 197.571, 335.500 197.142, 335.500 196 C 335.500 194.858, 334.007 194.429, 329.250 194.202 C 323.477 193.927, 323 194.065, 323 196 M 150 197.060 C 150 198.829, 150.530 199.077, 153.742 198.810 C 156.357 198.593, 157.583 197.973, 157.815 196.750 C 158.087 195.315, 157.412 195, 154.073 195 C 150.627 195, 150 195.317, 150 197.060 M 364.068 199.904 C 360.776 204.528, 361.286 205, 369.573 205 C 376.246 205, 377.107 204.792, 376.814 203.250 C 376.575 201.989, 375.226 201.360, 371.991 201 C 369.158 200.685, 367.968 200.198, 368.766 199.681 C 369.463 199.230, 369.774 198.443, 369.457 197.931 C 368.375 196.180, 366.137 196.999, 364.068 199.904 M 100.750 200.484 C 97.529 203.318, 97.223 205, 99.927 205 C 102.053 205, 106.293 200.283, 105.427 198.882 C 104.602 197.547, 103.757 197.837, 100.750 200.484 M 243 199.845 C 243 201.823, 245.940 205, 247.770 205 C 250.166 205, 250.054 202.779, 247.539 200.449 C 244.386 197.526, 243 197.342, 243 199.845 M 222 202.073 C 222 204.460, 222.391 205.073, 223.750 204.815 C 224.805 204.615, 225.626 203.395, 225.816 201.741 C 226.071 199.535, 225.729 199, 224.066 199 C 222.426 199, 222 199.634, 222 202.073 M 342 202 C 342 204, 342.500 205, 343.500 205 C 344.500 205, 345 204, 345 202 C 345 200, 344.500 199, 343.500 199 C 342.500 199, 342 200, 342 202 M 323.709 201.624 C 323.319 202.014, 323 202.954, 323 203.712 C 323 204.777, 324.537 205.024, 329.750 204.796 C 334.952 204.568, 336.500 204.156, 336.500 203 C 336.500 201.864, 335.032 201.429, 330.459 201.208 C 327.136 201.047, 324.099 201.234, 323.709 201.624" stroke="none" fill="#ccefe3" fill-rule="evenodd"/><path d="M 0 158.494 L 0 315.004 234.250 314.752 L 468.500 314.500 468.673 157.500 C 468.768 71.150, 468.655 0.950, 468.423 1.500 C 468.142 2.164, 389.297 2.413, 234 2.242 L -0 1.983 0 158.494 M 0.488 158.500 C 0.488 244.850, 0.606 280.027, 0.750 236.671 C 0.894 193.316, 0.894 122.666, 0.750 79.671 C 0.606 36.677, 0.488 72.150, 0.488 158.500 M 263.500 113.618 C 248.754 116.270, 236.446 124.325, 231.086 134.831 C 228.271 140.350, 225.994 149.407, 226.027 154.960 L 226.053 159.500 229.277 153.535 C 233.355 145.987, 241.153 138.263, 248.821 134.176 C 252.099 132.429, 255.131 131, 255.560 131 C 255.990 131, 253.482 133.587, 249.987 136.750 C 240.951 144.927, 234.326 155.885, 231.421 167.459 C 230.858 169.703, 231.094 170, 233.444 170 C 238.939 170, 250.735 166.658, 257.295 163.243 C 271.945 155.615, 280.945 138.902, 280.985 119.250 L 281 112 276.250 112.090 C 273.637 112.139, 267.900 112.827, 263.500 113.618 M 185 129.734 C 185 134.935, 186.922 143.125, 189.225 147.736 C 193.465 156.226, 202.513 161.789, 212.828 162.248 L 218.500 162.500 218.797 156.281 C 219.314 145.444, 216.036 137.998, 208.491 132.874 C 203.737 129.645, 199.631 128.348, 191.250 127.428 L 185 126.742 185 129.734 M 92.235 188.996 C 88.088 192.859, 88.430 200.276, 92.913 203.718 C 96.752 206.666, 98.624 203.780, 95 200.500 C 93.900 199.505, 93 197.480, 93 196 C 93 194.520, 93.900 192.495, 95 191.500 C 97.272 189.444, 97.646 187, 95.689 187 C 94.967 187, 93.413 187.898, 92.235 188.996 M 98.055 188.250 C 98.086 188.938, 99.466 190.572, 101.123 191.882 C 103.463 193.732, 104.400 193.996, 105.318 193.063 C 106.231 192.135, 105.861 191.307, 103.694 189.430 C 100.664 186.805, 97.966 186.241, 98.055 188.250 M 113.913 188.282 C 111.563 190.086, 110 193.488, 110 196.798 C 110 199.881, 114.141 205, 116.636 205 C 118.711 205, 118.263 201.646, 116 200.232 C 114.726 199.437, 114 197.900, 114 196 C 114 194.100, 114.726 192.563, 116 191.768 C 118.198 190.395, 118.739 186.981, 116.750 187.032 C 116.063 187.049, 114.786 187.612, 113.913 188.282 M 120 188.345 C 120 189.085, 120.900 190.505, 122 191.500 C 123.105 192.500, 124 194.580, 124 196.147 C 124 197.900, 123.236 199.460, 122 200.232 C 119.737 201.646, 119.289 205, 121.364 205 C 122.114 205, 123.914 203.814, 125.364 202.364 C 128.227 199.500, 128.797 195.365, 126.837 191.684 C 124.713 187.696, 120 185.394, 120 188.345 M 134 189 C 132.900 190.100, 132 191.450, 132 192 C 132 192.550, 132.900 193, 134 193 C 135.100 193, 136 192.598, 136 192.107 C 136 190.533, 139.203 189.923, 140.745 191.203 C 142.022 192.263, 141.582 193.019, 137.679 196.470 C 135.173 198.687, 132.983 201.400, 132.811 202.500 C 132.532 204.297, 133.143 204.530, 138.833 204.800 C 144.477 205.067, 145.129 204.904, 144.825 203.300 C 144.597 202.098, 143.417 201.397, 141.276 201.189 L 138.069 200.878 141.534 197.836 C 145.570 194.292, 146.033 190.837, 142.777 188.557 C 139.746 186.433, 136.398 186.602, 134 189 M 162.190 188.750 C 162.376 189.713, 163.190 190.500, 164 190.500 C 164.810 190.500, 165.624 189.713, 165.810 188.750 C 166.046 187.522, 165.506 187, 164 187 C 162.494 187, 161.954 187.522, 162.190 188.750 M 168 196 C 168 203.333, 168.278 205, 169.500 205 C 170.689 205, 171 203.563, 171 198.066 C 171 191.251, 171.047 191.127, 173.741 190.816 C 175.395 190.626, 176.615 189.805, 176.815 188.750 C 177.092 187.290, 176.389 187, 172.573 187 L 168 187 168 196 M 181.667 187.667 C 180.049 189.284, 181.340 190, 185.878 190 C 189.053 190, 191.202 190.538, 192.035 191.542 C 193.882 193.767, 192.265 194.833, 186.500 195.190 L 181.500 195.500 181.500 199.986 C 181.500 203.464, 181.893 204.548, 183.250 204.810 C 184.610 205.072, 185 204.462, 185 202.073 C 185 199.539, 185.401 199, 187.284 199 C 188.762 199, 190.195 200.059, 191.341 202 C 192.343 203.696, 193.958 205, 195.057 205 C 197.491 205, 197.486 204.491, 195.012 201.017 C 193.269 198.569, 193.207 198.073, 194.512 196.990 C 196.464 195.370, 196.416 190.559, 194.429 188.571 C 192.838 186.981, 183.046 186.287, 181.667 187.667 M 205.143 191.411 C 201.788 198.993, 201.631 200, 203.797 200 C 205.104 200, 206.198 198.788, 207.181 196.250 L 208.634 192.500 210.317 195.700 C 211.243 197.461, 212 199.351, 212 199.900 C 212 200.450, 209.417 201.035, 206.260 201.200 C 201.732 201.437, 200.449 201.870, 200.186 203.250 C 199.889 204.814, 200.830 205, 209.034 205 C 215.970 205, 218.095 204.695, 217.728 203.750 C 210.680 185.621, 208.604 183.586, 205.143 191.411 M 222 187.476 C 222 187.738, 224.744 191.788, 228.097 196.476 C 232.086 202.052, 234.852 205, 236.097 205 C 237.827 205, 238 204.180, 238 196 C 238 187.667, 237.852 187, 236 187 C 234.233 187, 234 187.667, 234 192.711 L 234 198.421 229.808 192.711 C 227.388 189.415, 224.851 187, 223.808 187 C 222.814 187, 222 187.214, 222 187.476 M 244.342 189.601 C 242.109 193.009, 243.358 194.998, 249.060 197.117 C 253.738 198.856, 255.130 200.629, 252.583 201.606 C 250.393 202.447, 250.590 205, 252.845 205 C 255.010 205, 258 201.999, 258 199.826 C 258 197.718, 255.181 195.471, 250.750 194.049 C 246.833 192.791, 245.948 191.341, 248.500 190.362 C 250.691 189.521, 250.334 187, 248.023 187 C 246.936 187, 245.279 188.170, 244.342 189.601 M 251 188.345 C 251 189.946, 254.168 193, 255.829 193 C 257.507 193, 257.273 190.416, 255.429 188.571 C 253.504 186.647, 251 186.519, 251 188.345 M 263 188.500 C 263 189.578, 264.102 190, 266.918 190 C 272.066 190, 274 190.819, 274 193 C 274 195.181, 272.066 196, 266.918 196 L 263 196 263 200.573 C 263 204.389, 263.290 205.092, 264.750 204.815 C 265.805 204.615, 266.626 203.395, 266.816 201.741 C 267.087 199.397, 267.594 198.998, 270.316 198.985 C 274.060 198.967, 275.293 198.274, 276.850 195.315 C 278.228 192.699, 276.965 188.584, 274.495 187.636 C 273.583 187.286, 270.623 187, 267.918 187 C 264.213 187, 263 187.370, 263 188.500 M 286.214 189.696 C 285.653 191.238, 284.470 194.188, 283.584 196.250 C 282.029 199.870, 282.042 200, 283.973 200 C 285.328 200, 286.498 198.791, 287.602 196.250 L 289.230 192.500 291.063 196.500 L 292.896 200.500 287.728 200.810 C 282.511 201.123, 279.563 202.483, 280.570 204.113 C 281.292 205.282, 298 205.266, 298 204.097 C 298 203.600, 296.496 199.662, 294.657 195.347 C 290.888 186.499, 288.063 184.608, 286.214 189.696 M 302.667 187.667 C 301.049 189.284, 302.340 190, 306.878 190 C 310.053 190, 312.202 190.538, 313.035 191.542 C 314.882 193.767, 313.265 194.833, 307.500 195.190 L 302.500 195.500 302.500 199.986 C 302.500 203.464, 302.893 204.548, 304.250 204.810 C 305.610 205.072, 306 204.462, 306 202.073 C 306 199.539, 306.401 199, 308.284 199 C 309.762 199, 311.195 200.059, 312.341 202 C 313.343 203.696, 314.958 205, 316.057 205 C 318.496 205, 318.487 204.493, 315.982 200.975 C 314.635 199.083, 314.326 197.917, 315.052 197.468 C 318.032 195.626, 317.764 189.878, 314.600 187.765 C 313.222 186.845, 303.568 186.765, 302.667 187.667 M 323 189 C 323 190.944, 323.474 191.071, 329.750 190.796 C 334.952 190.568, 336.500 190.156, 336.500 189 C 336.500 187.844, 334.952 187.432, 329.750 187.204 C 323.474 186.929, 323 187.056, 323 189 M 342 187.823 C 342 189.622, 354.077 205, 355.490 205 C 356.725 205, 357 203.360, 357 196 C 357 188.804, 356.709 187, 355.550 187 C 354.486 187, 354.020 188.531, 353.800 192.750 L 353.500 198.500 349.500 192.762 C 347.235 189.513, 344.741 187.019, 343.750 187.012 C 342.788 187.005, 342 187.370, 342 187.823 M 362 188.500 C 362 189.611, 363.167 190, 366.500 190 C 371.086 190, 371.913 190.687, 369.833 192.767 C 368.943 193.657, 369.100 194.101, 370.490 194.635 C 371.784 195.131, 372.997 194.542, 374.658 192.612 C 378.728 187.879, 377.921 187, 369.500 187 C 363.500 187, 362 187.300, 362 188.500 M 323 196 C 323 197.935, 323.477 198.073, 329.250 197.798 C 334.007 197.571, 335.500 197.142, 335.500 196 C 335.500 194.858, 334.007 194.429, 329.250 194.202 C 323.477 193.927, 323 194.065, 323 196 M 150 197.060 C 150 198.829, 150.530 199.077, 153.742 198.810 C 156.357 198.593, 157.583 197.973, 157.815 196.750 C 158.087 195.315, 157.412 195, 154.073 195 C 150.627 195, 150 195.317, 150 197.060 M 364.068 199.904 C 360.776 204.528, 361.286 205, 369.573 205 C 376.246 205, 377.107 204.792, 376.814 203.250 C 376.575 201.989, 375.226 201.360, 371.991 201 C 369.158 200.685, 367.968 200.198, 368.766 199.681 C 369.463 199.230, 369.774 198.443, 369.457 197.931 C 368.375 196.180, 366.137 196.999, 364.068 199.904 M 100.750 200.484 C 97.529 203.318, 97.223 205, 99.927 205 C 102.053 205, 106.293 200.283, 105.427 198.882 C 104.602 197.547, 103.757 197.837, 100.750 200.484 M 243 199.845 C 243 201.823, 245.940 205, 247.770 205 C 250.166 205, 250.054 202.779, 247.539 200.449 C 244.386 197.526, 243 197.342, 243 199.845 M 222 202.073 C 222 204.460, 222.391 205.073, 223.750 204.815 C 224.805 204.615, 225.626 203.395, 225.816 201.741 C 226.071 199.535, 225.729 199, 224.066 199 C 222.426 199, 222 199.634, 222 202.073 M 342 202 C 342 204, 342.500 205, 343.500 205 C 344.500 205, 345 204, 345 202 C 345 200, 344.500 199, 343.500 199 C 342.500 199, 342 200, 342 202 M 323.709 201.624 C 323.319 202.014, 323 202.954, 323 203.712 C 323 204.777, 324.537 205.024, 329.750 204.796 C 334.952 204.568, 336.500 204.156, 336.500 203 C 336.500 201.864, 335.032 201.429, 330.459 201.208 C 327.136 201.047, 324.099 201.234, 323.709 201.624" stroke="none" fill="#2d2d2d" fill-rule="evenodd"/></svg>